#!OML:ASF F:\VICON\USERDATA\INSTALL\rory3\rory3.ASF
:FULLY-SPECIFIED
:DEGREES
569
root 3.91938 16.5566 0.35074 8.97277 1.42004 3.70396
lowerback -5.37605 3.31269 0.0658863
upperback 0.552209 4.56393 -3.83972
thorax 3.90538 2.31819 -3.60845
lowerneck 0.92463 7.81306 5.3261
upperneck 57.8601 9.75168 7.85035
head 26.5438 5.60178 5.7465
rclavicle 8.44835e-015 -7.95139e-016
rhumerus -35.653 -0.198275 -90.3682
rradius 65.7976
rwrist -48.1045
rhand -3.56846 -50.165
rfingers 7.12502
rthumb 22.1683 -78.9139
lclavicle 8.44835e-015 -7.95139e-016
lhumerus -20.9591 -11.4764 87.3543
lradius 51.1462
lwrist 77.0068
lhand -36.065 -16.4896
lfingers 7.12502
lthumb -9.17249 13.2909
rfemur -51.3909 9.31587 9.07574
rtibia 76.6008
rfoot 9.30049 5.3649
rtoes -37.3101
lfemur -27.9774 -3.91597 -32.7793
ltibia 44.72
lfoot -22.6864 13.3048
ltoes 7.95636
570
root 3.92152 16.5551 0.35116 9.03339 1.53054 3.71182
lowerback -5.46789 3.23943 -0.124759
upperback 0.569804 4.47518 -3.70384
thorax 3.94311 2.26773 -3.36319
lowerneck 0.867359 7.83594 4.99699
upperneck 57.8954 9.75675 8.0422
head 26.5184 5.54795 5.9293
rclavicle 4.72611e-014 -1.03368e-014
rhumerus -35.7962 -0.195824 -90.1693
rradius 65.84
rwrist -48.0376
rhand -3.50111 -49.2321
rfingers 7.12502
rthumb 22.233 -77.9733
lclavicle 4.72611e-014 -1.03368e-014
lhumerus -21.049 -11.0542 87.4196
lradius 51.0112
lwrist 77.0269
lhand -37.3405 -16.7922
lfingers 7.12502
lthumb -10.4031 12.9305
rfemur -51.4439 9.22941 9.02693
rtibia 76.6228
rfoot 9.29435 5.17315
rtoes -36.5395
lfemur -28.0536 -3.96782 -32.784
ltibia 44.7476
lfoot -22.6795 13.2474
ltoes 7.75656
571
root 3.92436 16.5517 0.349517 9.10807 1.57087 3.85598
lowerback -5.53955 3.19433 -0.39706
upperback 0.62257 4.43414 -3.64801
thorax 4.01022 2.24062 -3.15143
lowerneck 0.846036 7.84552 4.90706
upperneck 57.8376 9.83525 7.9277
head 26.4385 5.55545 5.87274
rclavicle 3.18055e-015 1.39149e-014
rhumerus -35.7913 -0.219061 -90.0228
rradius 65.6438
rwrist -48.0103
rhand -3.79631 -44.9039
rfingers 7.12502
rthumb 21.9495 -73.6787
lclavicle 3.18055e-015 1.39149e-014
lhumerus -21.004 -10.7039 87.4382
lradius 50.8431
lwrist 77.0017
lhand -37.8394 -17.0599
lfingers 7.12502
lthumb -10.8844 12.638
rfemur -51.5539 9.11917 8.82066
rtibia 76.6719
rfoot 9.2894 5.30013
rtoes -36.721
lfemur -28.1716 -3.94893 -32.9485
ltibia 44.8154
lfoot -22.6927 13.1561
ltoes 7.94082
572
root 3.92434 16.5416 0.346221 9.17551 1.47634 3.94127
lowerback -5.50349 3.22763 -0.497416
upperback 0.59934 4.48486 -3.68117
thorax 3.96362 2.26385 -3.12766
lowerneck 0.833183 7.85199 4.9503
upperneck 57.8327 9.88085 7.8498
head 26.4574 5.57484 5.82805
rclavicle -9.49197e-015 -2.5842e-014
rhumerus -35.7787 -0.315671 -89.9649
rradius 65.2792
rwrist -48.0804
rhand -6.01386 -53.8724
rfingers 7.12502
rthumb 19.819 -82.8819
lclavicle -9.49197e-015 -2.5842e-014
lhumerus -20.9775 -10.519 87.3683
lradius 50.5984
lwrist 76.9111
lhand -37.394 -16.9779
lfingers 7.12502
lthumb -10.4547 12.7421
rfemur -51.7408 9.1764 8.6682
rtibia 76.7425
rfoot 9.29869 5.37825
rtoes -36.8679
lfemur -28.3423 -3.79724 -33.0515
ltibia 44.8929
lfoot -22.7042 13.0752
ltoes 8.29047
573
root 3.92304 16.533 0.345887 9.19974 1.44137 3.95793
lowerback -5.1482 3.29429 -0.376082
upperback 0.373694 4.55385 -3.81863
thorax 3.5544 2.30093 -3.35861
lowerneck 0.859791 7.84895 4.96972
upperneck 58.0111 9.76034 8.17054
head 26.6642 5.54415 6.04898
rclavicle -3.24019e-014 4.09496e-014
rhumerus -36.0955 -0.663484 -89.9998
rradius 65.0287
rwrist -48.0374
rhand -5.68973 -58.8587
rfingers 7.12502
rthumb 20.1306 -87.8357
lclavicle -3.24019e-014 4.09496e-014
lhumerus -21.2214 -10.5225 87.2084
lradius 50.3423
lwrist 76.9963
lhand -36.608 -16.6108
lfingers 7.12502
lthumb -9.69648 13.146
rfemur -51.8252 9.2234 8.62755
rtibia 76.8094
rfoot 9.21461 5.37512
rtoes -36.8533
lfemur -28.4422 -3.63025 -33.0774
ltibia 44.9525
lfoot -22.6886 13.0023
ltoes 8.21865
574
root 3.92655 16.5345 0.353044 9.2156 1.5023 3.986
lowerback -4.63273 3.39526 -0.0620975
upperback 0.0246166 4.65485 -4.08741
thorax 2.9578 2.35602 -3.84579
lowerneck 0.912659 7.81477 5.04088
upperneck 58.3106 9.49289 8.73663
head 27.0369 5.47508 6.43055
rclavicle -3.98066e-014 -2.22639e-014
rhumerus -36.6153 -1.30804 -90.1289
rradius 64.8252
rwrist -47.8584
rhand -3.96222 -47.9069
rfingers 7.12502
rthumb 21.7902 -76.7002
lclavicle -3.98066e-014 -2.22639e-014
lhumerus -21.7377 -10.8465 86.9853
lradius 50.1846
lwrist 77.099
lhand -36.5716 -16.6089
lfingers 7.12502
lthumb -9.66136 13.1495
rfemur -51.7702 9.14399 8.58967
rtibia 76.8252
rfoot 9.10886 5.4089
rtoes -36.7677
lfemur -28.383 -3.58636 -33.1284
ltibia 44.955
lfoot -22.7069 12.9167
ltoes 7.95124
575
root 3.93053 16.5364 0.359026 9.20848 1.58319 4.00036
lowerback -4.37873 3.46308 0.171348
upperback -0.146168 4.72744 -4.26535
thorax 2.67841 2.3949 -4.17677
lowerneck 0.982521 7.77402 5.16027
upperneck 58.4511 9.31584 9.00656
head 27.2217 5.44272 6.59049
rclavicle -3.91109e-014 2.78299e-014
rhumerus -36.9828 -1.80318 -90.1918
rradius 64.62
rwrist -47.806
rhand -2.32977 -36.0286
rfingers 7.12502
rthumb 23.3571 -64.6315
lclavicle -3.91109e-014 2.78299e-014
lhumerus -22.1119 -11.0158 86.8262
lradius 50.0224
lwrist 76.9039
lhand -37.6805 -16.782
lfingers 7.12502
lthumb -10.7311 12.9239
rfemur -51.6744 9.04246 8.57206
rtibia 76.8132
rfoot 9.06048 5.47134
rtoes -36.7487
lfemur -28.2354 -3.61971 -33.1594
ltibia 44.8849
lfoot -22.7389 12.8216
ltoes 7.86915
576
root 3.93355 16.5369 0.363192 9.22501 1.62061 4.10304
lowerback -4.43492 3.51066 0.148391
upperback -0.16147 4.79593 -4.3592
thorax 2.70583 2.42992 -4.25338
lowerneck 1.07701 7.71017 5.27857
upperneck 58.4044 9.19774 8.98887
head 27.1407 5.43493 6.51434
rclavicle 7.7526e-015 -1.59028e-015
rhumerus -37.2605 -2.15184 -90.1405
rradius 64.5001
rwrist -47.8956
rhand -2.66991 -35.642
rfingers 7.12502
rthumb 23.0307 -64.2859
lclavicle 7.7526e-015 -1.59028e-015
lhumerus -22.2417 -10.9515 86.7348
lradius 49.7718
lwrist 76.654
lhand -38.0323 -17.3536
lfingers 7.12502
lthumb -11.0705 12.3345
rfemur -51.6356 8.94448 8.44673
rtibia 76.7998
rfoot 9.11614 5.56204
rtoes -36.5704
lfemur -28.1542 -3.66276 -33.2797
ltibia 44.7624
lfoot -22.6753 12.8011
ltoes 7.84145
577
root 3.9403 16.5429 0.372855 9.2582 1.64165 4.2084
lowerback -4.6422 3.53934 0.112421
upperback -0.113841 4.84485 -4.41921
thorax 2.87759 2.45606 -4.2774
lowerneck 1.12845 7.67722 5.42468
upperneck 58.3634 9.1896 8.83962
head 27.1079 5.45905 6.37941
rclavicle -3.42407e-014 2.38542e-014
rhumerus -37.3821 -2.40945 -90.0493
rradius 64.3592
rwrist -47.943
rhand -2.92985 -36.0072
rfingers 7.12502
rthumb 22.7813 -64.682
lclavicle -3.42407e-014 2.38542e-014
lhumerus -22.1955 -10.7787 86.6592
lradius 49.4132
lwrist 76.502
lhand -36.6836 -18.0431
lfingers 7.12502
lthumb -9.76941 11.7103
rfemur -51.5561 8.82778 8.30518
rtibia 76.7562
rfoot 9.14564 5.61614
rtoes -36.2668
lfemur -28.0902 -3.71916 -33.4229
ltibia 44.6383
lfoot -22.6081 12.8896
ltoes 7.63098
578
root 3.94662 16.5477 0.379178 9.24058 1.70015 4.18313
lowerback -4.72965 3.54013 0.195714
upperback -0.0704869 4.84546 -4.42146
thorax 2.97876 2.45881 -4.31953
lowerneck 1.17195 7.67493 5.5381
upperneck 58.3426 9.22339 8.72241
head 27.093 5.49103 6.28307
rclavicle -6.11263e-015 1.11319e-014
rhumerus -37.4247 -2.56559 -89.9834
rradius 64.1361
rwrist -47.9142
rhand -3.65798 -37.5968
rfingers 7.12502
rthumb 22.0824 -66.3559
lclavicle -6.11263e-015 1.11319e-014
lhumerus -22.1237 -10.5267 86.5827
lradius 49.0651
lwrist 76.3229
lhand -36.4099 -17.7393
lfingers 7.12502
lthumb -9.50532 12.0263
rfemur -51.436 8.73939 8.32756
rtibia 76.7075
rfoot 9.07512 5.62956
rtoes -36.2916
lfemur -27.9802 -3.74815 -33.4252
ltibia 44.5495
lfoot -22.6347 12.9262
ltoes 7.51712
